<mxfile host="app.diagrams.net" modified="2024-04-23T08:43:41.203Z" agent="Mozilla/5.0 (Windows NT 10.0; Win64; x64) AppleWebKit/537.36 (KHTML, like Gecko) Chrome/124.0.0.0 Safari/537.36" version="24.2.8" etag="u91jUCGja4NLnP8WpHXU" type="github">
  <diagram name="Page-1" id="psRXd5FGotfIMGosKNNu">
    <mxGraphModel>
      <root>
        <mxCell id="0" />
        <mxCell id="1" parent="0" />
      </root>
    </mxGraphModel>
  </diagram>
</mxfile>
